%TF.GenerationSoftware,KiCad,Pcbnew,8.0.5*%
%TF.CreationDate,2024-10-12T11:29:24-07:00*%
%TF.ProjectId,C00000001,43303030-3030-4303-9031-2e6b69636164,A*%
%TF.SameCoordinates,Original*%
%TF.FileFunction,Soldermask,Bot*%
%TF.FilePolarity,Negative*%
%FSLAX46Y46*%
G04 Gerber Fmt 4.6, Leading zero omitted, Abs format (unit mm)*
G04 Created by KiCad (PCBNEW 8.0.5) date 2024-10-12 11:29:24*
%MOMM*%
%LPD*%
G01*
G04 APERTURE LIST*
G04 Aperture macros list*
%AMRoundRect*
0 Rectangle with rounded corners*
0 $1 Rounding radius*
0 $2 $3 $4 $5 $6 $7 $8 $9 X,Y pos of 4 corners*
0 Add a 4 corners polygon primitive as box body*
4,1,4,$2,$3,$4,$5,$6,$7,$8,$9,$2,$3,0*
0 Add four circle primitives for the rounded corners*
1,1,$1+$1,$2,$3*
1,1,$1+$1,$4,$5*
1,1,$1+$1,$6,$7*
1,1,$1+$1,$8,$9*
0 Add four rect primitives between the rounded corners*
20,1,$1+$1,$2,$3,$4,$5,0*
20,1,$1+$1,$4,$5,$6,$7,0*
20,1,$1+$1,$6,$7,$8,$9,0*
20,1,$1+$1,$8,$9,$2,$3,0*%
G04 Aperture macros list end*
%ADD10C,5.700000*%
%ADD11C,3.000000*%
%ADD12RoundRect,0.102000X1.000000X-1.000000X1.000000X1.000000X-1.000000X1.000000X-1.000000X-1.000000X0*%
%ADD13C,2.204000*%
%ADD14R,1.700000X1.700000*%
%ADD15O,1.700000X1.700000*%
%ADD16R,2.000000X4.500000*%
%ADD17O,2.000000X4.000000*%
%ADD18O,4.000000X2.000000*%
G04 APERTURE END LIST*
D10*
%TO.C,H6*%
X203500000Y-41250000D03*
%TD*%
D11*
%TO.C,U1*%
X175730000Y-212480000D03*
X222680000Y-212480000D03*
X175730000Y-187970000D03*
X222680000Y-187970000D03*
D12*
X183690000Y-212900000D03*
D13*
X186230000Y-212900000D03*
X188770000Y-212900000D03*
X191310000Y-212900000D03*
X193850000Y-212900000D03*
X196390000Y-212900000D03*
X198930000Y-212900000D03*
X201470000Y-212900000D03*
X204010000Y-212900000D03*
X206550000Y-212900000D03*
X209090000Y-212900000D03*
X211630000Y-212900000D03*
X214170000Y-212900000D03*
X216710000Y-212900000D03*
X219250000Y-212900000D03*
X219250000Y-187500000D03*
X216710000Y-187500000D03*
X214170000Y-187500000D03*
X211630000Y-187500000D03*
X209090000Y-187500000D03*
X206550000Y-187500000D03*
X204010000Y-187500000D03*
X201470000Y-187500000D03*
X198930000Y-187500000D03*
X196390000Y-187500000D03*
X193850000Y-187500000D03*
X191310000Y-187500000D03*
X188770000Y-187500000D03*
X186230000Y-187500000D03*
X183690000Y-187500000D03*
%TD*%
D14*
%TO.C,SW7*%
X259250000Y-206460000D03*
D15*
X259250000Y-209000000D03*
X259250000Y-211540000D03*
%TD*%
D10*
%TO.C,H5*%
X168500000Y-216250000D03*
%TD*%
D14*
%TO.C,SW2*%
X295500000Y-206460000D03*
D15*
X295500000Y-209000000D03*
X295500000Y-211540000D03*
%TD*%
D14*
%TO.C,SW3*%
X288250000Y-206460000D03*
D15*
X288250000Y-209000000D03*
X288250000Y-211540000D03*
%TD*%
D14*
%TO.C,SW10*%
X143500000Y-206975000D03*
D15*
X143500000Y-209515000D03*
X143500000Y-212055000D03*
%TD*%
D14*
%TO.C,SW8*%
X252000000Y-206460000D03*
D15*
X252000000Y-209000000D03*
X252000000Y-211540000D03*
%TD*%
D14*
%TO.C,SW16*%
X100000000Y-206975000D03*
D15*
X100000000Y-209515000D03*
X100000000Y-212055000D03*
%TD*%
D10*
%TO.C,H3*%
X336000000Y-216250000D03*
%TD*%
D14*
%TO.C,SW4*%
X281000000Y-206460000D03*
D15*
X281000000Y-209000000D03*
X281000000Y-211540000D03*
%TD*%
D14*
%TO.C,SW15*%
X107250000Y-206975000D03*
D15*
X107250000Y-209515000D03*
X107250000Y-212055000D03*
%TD*%
D14*
%TO.C,SW13*%
X121750000Y-206975000D03*
D15*
X121750000Y-209515000D03*
X121750000Y-212055000D03*
%TD*%
D14*
%TO.C,SW11*%
X136250000Y-206975000D03*
D15*
X136250000Y-209515000D03*
X136250000Y-212055000D03*
%TD*%
D14*
%TO.C,SW14*%
X114500000Y-206975000D03*
D15*
X114500000Y-209515000D03*
X114500000Y-212055000D03*
%TD*%
D10*
%TO.C,H4*%
X336000000Y-41250000D03*
%TD*%
%TO.C,H1*%
X66000000Y-216250000D03*
%TD*%
D16*
%TO.C,J1*%
X73700000Y-201750000D03*
D17*
X67500000Y-201750000D03*
D18*
X70500000Y-206450000D03*
%TD*%
D14*
%TO.C,SW1*%
X303000000Y-206460000D03*
D15*
X303000000Y-209000000D03*
X303000000Y-211540000D03*
%TD*%
D14*
%TO.C,SW9*%
X151000000Y-206975000D03*
D15*
X151000000Y-209515000D03*
X151000000Y-212055000D03*
%TD*%
D14*
%TO.C,SW12*%
X129000000Y-206975000D03*
D15*
X129000000Y-209515000D03*
X129000000Y-212055000D03*
%TD*%
D14*
%TO.C,SW6*%
X266500000Y-206460000D03*
D15*
X266500000Y-209000000D03*
X266500000Y-211540000D03*
%TD*%
D10*
%TO.C,H2*%
X66000000Y-41250000D03*
%TD*%
D14*
%TO.C,SW5*%
X273750000Y-206460000D03*
D15*
X273750000Y-209000000D03*
X273750000Y-211540000D03*
%TD*%
M02*
