M48
; DRILL file {KiCad 8.0.5} date 2024-10-12T11:29:27-0700
; FORMAT={-:-/ absolute / inch / decimal}
; #@! TF.CreationDate,2024-10-12T11:29:27-07:00
; #@! TF.GenerationSoftware,Kicad,Pcbnew,8.0.5
; #@! TF.FileFunction,Plated,1,2,PTH
FMAT,2
INCH
; #@! TA.AperFunction,Plated,PTH,ViaDrill
T1C0.0118
; #@! TA.AperFunction,Plated,PTH,ComponentDrill
T2C0.0394
; #@! TA.AperFunction,Plated,PTH,ComponentDrill
T3C0.0402
; #@! TA.AperFunction,Plated,PTH,ComponentDrill
T4C0.1260
%
G90
G05
T1
X2.7559Y-7.0472
X2.8937Y-5.1134
X2.9429Y-7.1969
X2.972Y-4.0824
X2.972Y-5.667
X3.0278Y-4.6958
X3.031Y-5.2207
X3.0345Y-6.2871
X3.0684Y-4.8413
X3.1105Y-6.247
X3.1218Y-4.5669
X3.159Y-4.1119
X3.159Y-4.4761
X3.159Y-5.6966
X3.159Y-6.0607
X3.1787Y-5.5588
X3.3179Y-5.5602
X3.422Y-4.2667
X3.4247Y-5.2045
X3.4641Y-6.2871
X3.5177Y-4.0224
X3.5453Y-4.5647
X3.5531Y-5.5556
X3.5876Y-7.8494
X3.5921Y-4.3678
X3.6807Y-6.2478
X3.6831Y-4.6695
X3.6938Y-7.6974
X3.7107Y-3.4402
X3.7397Y-5.0371
X3.7543Y-6.0268
X3.7633Y-4.3585
X3.7633Y-5.578
X3.7638Y-3.9732
X3.937Y-7.8445
X4.0482Y-7.6975
X4.0812Y-3.7303
X4.1339Y-3.3071
X4.2126Y-7.8248
X4.2439Y-5.113
X4.3221Y-4.082
X4.3221Y-5.6666
X4.378Y-4.6954
X4.3812Y-5.2203
X4.3846Y-6.2867
X4.4051Y-7.6969
X4.4186Y-4.8408
X4.4607Y-6.2466
X4.4743Y-4.5512
X4.4975Y-4.6139
X4.5091Y-4.1115
X4.5091Y-4.4757
X4.5091Y-5.6961
X4.5091Y-6.0603
X4.5288Y-5.5583
X4.5669Y-7.8248
X4.668Y-5.5598
X4.7198Y-4.2989
X4.7594Y-7.6969
X4.7749Y-5.204
X4.7928Y-4.3186
X4.8142Y-6.2867
X4.8678Y-4.022
X4.8954Y-4.5643
X4.9033Y-5.5552
X4.9409Y-7.7461
X4.9422Y-4.3674
X5.0308Y-6.2473
X5.0332Y-4.6691
X5.0591Y-3.4402
X5.0898Y-5.0367
X5.1045Y-6.0263
X5.1135Y-4.3581
X5.1135Y-5.5775
X5.1139Y-3.9728
X5.1149Y-7.6969
X5.2756Y-7.7756
X5.4691Y-7.6969
X5.5954Y-5.1124
X5.6299Y-7.8051
X5.6737Y-4.0814
X5.6737Y-5.666
X5.7295Y-4.6948
X5.7327Y-5.2196
X5.7362Y-6.2861
X5.7701Y-4.8402
X5.8122Y-6.246
X5.8233Y-7.6969
X5.8263Y-4.5548
X5.8362Y-4.6193
X5.8607Y-4.1109
X5.8607Y-4.4751
X5.8607Y-5.6955
X5.8607Y-6.0597
X5.8804Y-5.5577
X5.9941Y-7.8346
X6.0196Y-5.5592
X6.0713Y-4.3088
X6.1264Y-5.2034
X6.1474Y-4.3149
X6.1658Y-6.2861
X6.1768Y-7.697
X6.2194Y-4.0214
X6.247Y-4.5636
X6.2548Y-5.5546
X6.2938Y-4.3668
X6.3824Y-6.2467
X6.3848Y-4.6685
X6.4095Y-3.4451
X6.4414Y-5.0361
X6.456Y-6.0257
X6.4567Y-1.939
X6.465Y-4.3574
X6.465Y-5.5769
X6.4655Y-3.9722
X6.6191Y-3.4596
X6.624Y-1.8898
X6.8209Y-1.9783
X6.9453Y-5.1132
X6.9561Y-7.9061
X7.0079Y-1.8898
X7.0236Y-4.0822
X7.0236Y-5.6669
X7.0307Y-7.8807
X7.0794Y-4.6957
X7.0826Y-5.2205
X7.0861Y-6.2869
X7.1004Y-7.8504
X7.1161Y-6.7224
X7.12Y-4.8411
X7.1513Y-7.829
X7.1621Y-6.2468
X7.1752Y-2.0177
X7.1834Y-4.5438
X7.193Y-4.6201
X7.2047Y-2.874
X7.2047Y-6.5453
X7.2106Y-4.1118
X7.2106Y-4.4759
X7.2106Y-5.6964
X7.2106Y-6.0606
X7.2303Y-5.5586
X7.2638Y-6.4567
X7.2711Y-8.2211
X7.3622Y-1.8898
X7.3695Y-5.56
X7.4196Y-4.3076
X7.4589Y-8.3089
X7.4675Y-4.3456
X7.4763Y-5.2043
X7.5157Y-6.2869
X7.5482Y-8.2982
X7.5693Y-4.0222
X7.5787Y-2.5
X7.5969Y-4.5645
X7.6047Y-5.5554
X7.6139Y-8.2916
X7.6437Y-4.3677
X7.687Y-2.5591
X7.6969Y-2.7067
X7.6969Y-2.7461
X7.6969Y-2.7953
X7.7192Y-1.8892
X7.7322Y-6.2476
X7.7347Y-4.6693
X7.7653Y-3.4426
X7.7913Y-5.0369
X7.8059Y-6.0266
X7.8149Y-4.3583
X7.8149Y-5.5778
X7.8153Y-3.973
X7.8248Y-7.0177
X7.8445Y-6.4272
X7.874Y-7.0276
X7.9331Y-7.0276
X7.9626Y-3.7106
X7.9921Y-2.9331
X7.9921Y-7.0276
X8.0217Y-2.9921
X8.0512Y-3.0512
X8.061Y-7.0276
X8.0734Y-1.8892
X8.0807Y-3.1102
X8.1102Y-3.1594
X8.1299Y-7.0276
X8.1988Y-7.0374
X8.2628Y-7.0325
X8.2997Y-5.1132
X8.3268Y-7.0374
X8.3779Y-4.0821
X8.3779Y-5.6668
X8.4289Y-1.8892
X8.4338Y-4.6956
X8.437Y-5.2204
X8.4404Y-6.2869
X8.4744Y-4.841
X8.5165Y-6.2468
X8.5478Y-4.5401
X8.5482Y-4.6192
X8.565Y-4.1117
X8.565Y-4.4758
X8.565Y-5.6963
X8.565Y-6.0605
X8.5846Y-5.5585
X8.6417Y-2.2343
X8.7239Y-5.5599
X8.7692Y-4.3186
X8.7831Y-1.8892
X8.7942Y-4.3732
X8.8307Y-5.2042
X8.8701Y-6.2869
X8.9237Y-4.0222
X8.9513Y-4.5644
X8.9591Y-5.5554
X8.9665Y-2.0669
X8.998Y-4.3676
X9.0846Y-6.437
X9.0866Y-6.2475
X9.0891Y-4.6693
X9.1182Y-3.4419
X9.1374Y-1.8892
X9.1457Y-5.0369
X9.1603Y-6.0265
X9.1693Y-4.3582
X9.1693Y-5.5777
X9.1697Y-3.973
X9.3209Y-2.0276
X9.4909Y-1.8894
X9.5177Y-7.7264
X9.6482Y-5.1123
X9.6985Y-7.6787
X9.7265Y-4.0813
X9.7265Y-5.6659
X9.7823Y-4.6947
X9.7855Y-5.2195
X9.789Y-6.286
X9.8229Y-4.8401
X9.8622Y-7.7362
X9.865Y-6.2459
X9.9011Y-4.6139
X9.9025Y-4.5267
X9.9135Y-4.1108
X9.9135Y-4.475
X9.9135Y-5.6954
X9.9135Y-6.0596
X9.9332Y-5.5576
X10.0528Y-7.6787
X10.0724Y-5.5591
X10.1177Y-4.3088
X10.1423Y-4.3728
X10.1792Y-5.2033
X10.2186Y-6.286
X10.2362Y-7.7264
X10.2722Y-4.0213
X10.2998Y-4.5635
X10.3076Y-5.5545
X10.3466Y-4.3667
X10.4098Y-7.6781
X10.4331Y-6.4173
X10.4352Y-6.2466
X10.4376Y-4.6684
X10.4725Y-3.4412
X10.4942Y-5.036
X10.5088Y-6.0256
X10.5178Y-4.3573
X10.5178Y-5.5768
X10.5183Y-3.9721
X10.5807Y-7.8445
X10.764Y-7.6781
X10.9203Y-7.8396
X11.0014Y-5.1111
X11.0796Y-4.0801
X11.0796Y-5.6647
X11.1195Y-7.6781
X11.1355Y-4.6935
X11.1387Y-5.2184
X11.1421Y-6.2848
X11.1761Y-4.8389
X11.2182Y-6.2447
X11.2455Y-4.618
X11.2576Y-4.5235
X11.2666Y-4.1096
X11.2666Y-4.4738
X11.2666Y-5.6943
X11.2666Y-6.0584
X11.2746Y-7.8297
X11.2863Y-5.5565
X11.4256Y-5.5579
X11.4737Y-7.6781
X11.4773Y-4.3039
X11.5104Y-4.3531
X11.5324Y-5.2021
X11.56Y-7.9085
X11.5718Y-6.2848
X11.6253Y-4.0201
X11.653Y-4.5624
X11.6608Y-5.5533
X11.6997Y-4.3655
X11.7883Y-6.2454
X11.7908Y-4.6672
X11.8204Y-3.4426
X11.8209Y-6.4272
X11.828Y-7.6781
X11.8474Y-5.0348
X11.862Y-6.0245
X11.871Y-4.3562
X11.871Y-5.5757
X11.8714Y-3.9709
X11.998Y-7.8051
X12.1815Y-7.6783
X12.3498Y-5.1111
X12.4281Y-4.0801
X12.4281Y-5.6647
X12.4839Y-4.6935
X12.4871Y-5.2184
X12.4906Y-6.2848
X12.5245Y-4.8389
X12.5666Y-6.2447
X12.6151Y-4.1096
X12.6151Y-4.4738
X12.6151Y-5.6943
X12.6151Y-6.0584
X12.6348Y-5.5565
X12.774Y-5.5579
X12.8808Y-5.2021
X12.9202Y-6.2848
X12.9738Y-4.0201
X13.0014Y-4.5624
X13.0092Y-5.5533
X13.0481Y-4.3655
X13.1367Y-6.2454
X13.1392Y-4.6672
X13.1688Y-3.4426
X13.1958Y-5.0348
X13.2104Y-6.0245
X13.2194Y-4.3562
X13.2194Y-5.5757
X13.2198Y-3.9709
T2
X3.937Y-8.1486
X3.937Y-8.2486
X3.937Y-8.3486
X4.2224Y-8.1486
X4.2224Y-8.2486
X4.2224Y-8.3486
X4.5079Y-8.1486
X4.5079Y-8.2486
X4.5079Y-8.3486
X4.7933Y-8.1486
X4.7933Y-8.2486
X4.7933Y-8.3486
X5.0787Y-8.1486
X5.0787Y-8.2486
X5.0787Y-8.3486
X5.3642Y-8.1486
X5.3642Y-8.2486
X5.3642Y-8.3486
X5.6496Y-8.1486
X5.6496Y-8.2486
X5.6496Y-8.3486
X5.9449Y-8.1486
X5.9449Y-8.2486
X5.9449Y-8.3486
X9.9213Y-8.1283
X9.9213Y-8.2283
X9.9213Y-8.3283
X10.2067Y-8.1283
X10.2067Y-8.2283
X10.2067Y-8.3283
X10.4921Y-8.1283
X10.4921Y-8.2283
X10.4921Y-8.3283
X10.7776Y-8.1283
X10.7776Y-8.2283
X10.7776Y-8.3283
X11.063Y-8.1283
X11.063Y-8.2283
X11.063Y-8.3283
X11.3484Y-8.1283
X11.3484Y-8.2283
X11.3484Y-8.3283
X11.6339Y-8.1283
X11.6339Y-8.2283
X11.6339Y-8.3283
X11.9291Y-8.1283
X11.9291Y-8.2283
X11.9291Y-8.3283
T3
X7.2319Y-7.3819
X7.2319Y-8.3819
X7.3319Y-7.3819
X7.3319Y-8.3819
X7.4319Y-7.3819
X7.4319Y-8.3819
X7.5319Y-7.3819
X7.5319Y-8.3819
X7.6319Y-7.3819
X7.6319Y-8.3819
X7.7319Y-7.3819
X7.7319Y-8.3819
X7.8319Y-7.3819
X7.8319Y-8.3819
X7.9319Y-7.3819
X7.9319Y-8.3819
X8.0319Y-7.3819
X8.0319Y-8.3819
X8.1319Y-7.3819
X8.1319Y-8.3819
X8.2319Y-7.3819
X8.2319Y-8.3819
X8.3319Y-7.3819
X8.3319Y-8.3819
X8.4319Y-7.3819
X8.4319Y-8.3819
X8.5319Y-7.3819
X8.5319Y-8.3819
X8.6319Y-7.3819
X8.6319Y-8.3819
T4
X2.5984Y-1.624
X2.5984Y-8.5138
X6.6339Y-8.5138
X8.0118Y-1.624
X13.2283Y-1.624
X13.2283Y-8.5138
T2
G00X2.6575Y-7.9035
M15
G01X2.6575Y-7.9823
M16
G05
G00X2.7362Y-8.128
M15
G01X2.815Y-8.128
M16
G05
G00X2.9016Y-7.8937
M15
G01X2.9016Y-7.9921
M16
G05
M30
